<?xml version="1.0" encoding="UTF-8"?>
<!DOCTYPE svg PUBLIC "-//W3C//DTD SVG 1.1//EN" "http://www.w3.org/Graphics/SVG/1.1/DTD/svg.dtd">
<svg width="280" height="240" viewBox="0 0 280 240" xmlns="http://www.w3.org/2000/svg">
  <title>Cartoon Character</title>

  <!-- Body -->
  <rect x="50" y="120" width="180" height="100" rx="20" fill="#FFD700" />

  <!-- Head -->
  <circle cx="120" cy="80" r="30" fill="#FFFFFF" />

  <!-- Eyes -->
  <ellipse cx="90" cy="65" rx="8" ry="5" fill="#000000" />
  <ellipse cx="150" cy="65" rx="8" ry="5" fill="#000000" />

  <!-- Nose -->
  <path d="M130,70 Q120,75 110,80 L110,90" fill="#FFA500" />

  <!-- Mouth -->
  <path d="M110,85 Q120,90 130,85" fill="#000000" />

  <!-- Ears -->
  <ellipse cx="70" cy="40" rx="10" ry="15" fill="#FFFFFF" />
  <ellipse cx="170" cy="40" rx="10" ry="15" fill="#FFFFFF" />

  <!-- Hat -->
  <rect x="95" y="30" width="90" height="20" rx="10" fill="#8B0000" />
  <path d="M95,30 L145,10 L160,10" fill="#8B0000" />

  <!-- Arms -->
  <rect x="70" y="120" width="40" height="30" rx="10" fill="#0000FF" />
  <rect x="200" y="120" width="40" height="30" rx="10" fill="#0000FF" />

  <!-- Hands -->
  <path d="M70,120 L60,135 L90,135" fill="#0000FF" />
  <path d="M200,120 L190,135 L160,135" fill="#0000FF" />

  <!-- Legs -->
  <rect x="140" y="180" width="20" height="40" rx="10" fill="#FF0000" />

  <!-- Feet -->
  <path d="M135,180 L145,195 L160,195" fill="#FF0000" />

  <!-- Shadow -->
  <rect x="120" y="170" width="40" height="30" rx="15" fill="#4169E1" />
</svg>
